<svg width="40" height="40" viewBox="0 0 40 40" fill="none" xmlns="http://www.w3.org/2000/svg">
<rect width="40" height="40" rx="20" fill="#F7F5F4"/>
<g clip-path="url(#clip0_13627_11903)">
<path d="M26.6666 11.6667H13.3333C12.4128 11.6667 11.6666 12.4129 11.6666 13.3333V16.6667C11.6666 17.5871 12.4128 18.3333 13.3333 18.3333H26.6666C27.5871 18.3333 28.3333 17.5871 28.3333 16.6667V13.3333C28.3333 12.4129 27.5871 11.6667 26.6666 11.6667Z" stroke="black" stroke-width="1.5" stroke-linecap="round" stroke-linejoin="round"/>
<path d="M26.6666 21.6667H13.3333C12.4128 21.6667 11.6666 22.4129 11.6666 23.3333V26.6667C11.6666 27.5871 12.4128 28.3333 13.3333 28.3333H26.6666C27.5871 28.3333 28.3333 27.5871 28.3333 26.6667V23.3333C28.3333 22.4129 27.5871 21.6667 26.6666 21.6667Z" stroke="black" stroke-width="1.5" stroke-linecap="round" stroke-linejoin="round"/>
<path d="M15 15H15.01" stroke="black" stroke-width="1.5" stroke-linecap="round" stroke-linejoin="round"/>
<path d="M15 25H15.01" stroke="black" stroke-width="1.5" stroke-linecap="round" stroke-linejoin="round"/>
</g>
<circle cx="34" cy="34" r="4.5" fill="#1EA672" stroke="white"/>
<defs>
<clipPath id="clip0_13627_11903">
<rect width="20" height="20" fill="white" transform="translate(10 10)"/>
</clipPath>
</defs>
</svg>
