<svg width="20" height="20" viewBox="0 0 20 20" fill="none" xmlns="http://www.w3.org/2000/svg">
<g clip-path="url(#clip0_14860_117136)">
<path d="M16.666 1.66667H3.33268C2.41221 1.66667 1.66602 2.41286 1.66602 3.33334V6.66667C1.66602 7.58715 2.41221 8.33334 3.33268 8.33334H16.666C17.5865 8.33334 18.3327 7.58715 18.3327 6.66667V3.33334C18.3327 2.41286 17.5865 1.66667 16.666 1.66667Z" stroke="black" stroke-width="1.5" stroke-linecap="round" stroke-linejoin="round"/>
<path d="M16.666 11.6667H3.33268C2.41221 11.6667 1.66602 12.4129 1.66602 13.3333V16.6667C1.66602 17.5871 2.41221 18.3333 3.33268 18.3333H16.666C17.5865 18.3333 18.3327 17.5871 18.3327 16.6667V13.3333C18.3327 12.4129 17.5865 11.6667 16.666 11.6667Z" stroke="black" stroke-width="1.5" stroke-linecap="round" stroke-linejoin="round"/>
<path d="M5 5H5.01" stroke="black" stroke-width="1.5" stroke-linecap="round" stroke-linejoin="round"/>
<path d="M5 15H5.01" stroke="black" stroke-width="1.5" stroke-linecap="round" stroke-linejoin="round"/>
</g>
<defs>
<clipPath id="clip0_14860_117136">
<rect width="20" height="20" fill="white"/>
</clipPath>
</defs>
</svg>
