<svg width="121" height="22" viewBox="0 0 121 22" fill="none" xmlns="http://www.w3.org/2000/svg">
<ellipse cx="2.69191" cy="10.7677" rx="2.69191" ry="2.69191" fill="#141414"/>
<ellipse cx="10.7676" cy="10.7677" rx="2.69191" ry="2.69191" fill="#141414"/>
<ellipse opacity="0.2" cx="2.69191" cy="18.8434" rx="2.69191" ry="2.69191" fill="#141414"/>
<circle opacity="0.2" cx="18.8433" cy="18.8434" r="2.69191" fill="#141414"/>
<ellipse cx="10.7676" cy="18.8434" rx="2.69191" ry="2.69191" fill="#141414"/>
<circle cx="18.8433" cy="10.7677" r="2.69191" fill="#141414"/>
<ellipse opacity="0.2" cx="2.69191" cy="2.69191" rx="2.69191" ry="2.69191" fill="#141414"/>
<ellipse opacity="0.2" cx="10.7676" cy="2.69191" rx="2.69191" ry="2.69191" fill="#141414"/>
<circle opacity="0.2" cx="18.8433" cy="2.69191" r="2.69191" fill="#141414"/>
<path d="M37.8847 19.9603C38.6525 19.9603 39.2764 19.8883 40.0202 19.7443V16.9609C39.5643 17.1289 39.0605 17.1769 38.5806 17.1769C37.4048 17.1769 36.9729 16.601 36.9729 15.4973V9.83453H40.0202V7.05116H36.9729V2.92409H33.6137V7.05116H31.4302V9.83453H33.6137V15.8092C33.6137 18.4486 35.0054 19.9603 37.8847 19.9603Z" fill="#141414"/>
<path d="M45.5064 19.9603C47.306 19.9603 48.5057 19.3604 49.1056 18.4246C49.1536 18.8325 49.2975 19.3844 49.4895 19.7203H52.5128C52.3448 19.1444 52.2249 18.2326 52.2249 17.6328V11.0583C52.2249 8.34687 50.2813 6.81121 46.994 6.81121C44.4986 6.81121 42.555 7.747 41.4753 9.1147L43.3949 11.0103C44.2587 10.0505 45.3624 9.5466 46.7061 9.5466C48.3377 9.5466 49.0576 10.0985 49.0576 10.9143C49.0576 11.6101 48.5777 12.09 45.9863 12.09C43.4908 12.09 40.9714 13.1218 40.9714 16.0011C40.9714 18.6645 42.891 19.9603 45.5064 19.9603ZM46.1782 17.4168C44.8825 17.4168 44.2827 16.8649 44.2827 15.8812C44.2827 15.0174 45.0025 14.4415 46.2022 14.4415C48.1218 14.4415 48.6497 14.3215 49.0576 13.9136V14.9454C49.0576 16.3131 47.9058 17.4168 46.1782 17.4168Z" fill="#141414"/>
<path d="M54.4086 5.44352H57.9118V2.30023H54.4086V5.44352ZM54.4805 19.7203H57.8398V7.05116H54.4805V19.7203Z" fill="#141414"/>
<path d="M60.287 19.7203H63.6463V2.68414H60.287V19.7203Z" fill="#141414"/>
<path d="M70.6285 19.9603C74.3237 19.9603 76.2193 18.0167 76.2193 15.9771C76.2193 14.1296 75.2835 12.7619 72.2122 12.21C70.0527 11.8261 68.709 11.3462 68.709 10.6024C68.709 9.95451 69.4768 9.49861 70.7725 9.49861C71.9242 9.49861 72.884 9.88252 73.6038 10.7223L75.7394 8.92274C74.6596 7.57904 72.884 6.81121 70.7725 6.81121C67.5332 6.81121 65.5177 8.53883 65.5177 10.6503C65.5177 12.9538 67.6292 13.9856 69.9087 14.3935C71.8043 14.7294 72.86 15.0893 72.86 15.9052C72.86 16.601 72.1162 17.1769 70.7005 17.1769C69.3088 17.1769 68.2291 16.529 67.7252 15.5692L64.8938 16.9129C65.5897 18.6405 67.9651 19.9603 70.6285 19.9603Z" fill="#141414"/>
<path d="M83.7294 19.9603C86.1288 19.9603 87.8564 19.0005 89.1521 16.841L86.4648 15.4733C85.9609 16.481 85.1451 17.1769 83.7294 17.1769C81.5939 17.1769 80.4421 15.4493 80.4421 13.3617C80.4421 11.2742 81.6658 9.59459 83.7294 9.59459C85.0251 9.59459 85.8889 10.2904 86.3928 11.3462L89.1042 9.90652C88.1924 7.91497 86.3928 6.81121 83.7294 6.81121C79.3384 6.81121 77.0829 10.0265 77.0829 13.3617C77.0829 16.9849 79.8183 19.9603 83.7294 19.9603Z" fill="#141414"/>
<path d="M94.5031 19.9603C96.3027 19.9603 97.5025 19.3604 98.1023 18.4246C98.1503 18.8325 98.2943 19.3844 98.4862 19.7203H101.51C101.342 19.1444 101.222 18.2326 101.222 17.6328V11.0583C101.222 8.34687 99.2781 6.81121 95.9908 6.81121C93.4954 6.81121 91.5518 7.747 90.472 9.1147L92.3916 11.0103C93.2554 10.0505 94.3592 9.5466 95.7029 9.5466C97.3345 9.5466 98.0543 10.0985 98.0543 10.9143C98.0543 11.6101 97.5744 12.09 94.983 12.09C92.4876 12.09 89.9682 13.1218 89.9682 16.0011C89.9682 18.6645 91.8877 19.9603 94.5031 19.9603ZM95.175 17.4168C93.8793 17.4168 93.2794 16.8649 93.2794 15.8812C93.2794 15.0174 93.9992 14.4415 95.199 14.4415C97.1185 14.4415 97.6464 14.3215 98.0543 13.9136V14.9454C98.0543 16.3131 96.9026 17.4168 95.175 17.4168Z" fill="#141414"/>
<path d="M103.196 19.7203H106.555V2.68414H103.196V19.7203Z" fill="#141414"/>
<path d="M114.617 19.9603C117.089 19.9603 119.08 18.9765 120.184 17.2249L117.641 15.5932C116.969 16.649 116.081 17.2249 114.617 17.2249C112.962 17.2249 111.762 16.3131 111.45 14.5375H121V13.3617C121 10.0265 118.96 6.81121 114.593 6.81121C110.442 6.81121 108.187 10.0505 108.187 13.3857C108.187 18.1367 111.762 19.9603 114.617 19.9603ZM111.57 11.8981C112.098 10.2904 113.202 9.5466 114.665 9.5466C116.321 9.5466 117.329 10.5304 117.665 11.8981H111.57Z" fill="#141414"/>
</svg>
